Crispy Extended-Black.ufo
<glyph name="exclam" format="2">
  <advance width="1243"/>
  <unicode hex="0021"/>
  <outline>
    <contour>
      <point x="204" y="555" type="line" identifier="1m237t4hyw"/>
      <point x="956" y="555" type="line" identifier="S4rO5KuHiL"/>
      <point x="1033" y="659" type="line"/>
      <point x="1033" y="1600" type="line" identifier="zfocDyDTCM"/>
      <point x="282" y="1600" type="line" identifier="v7N4yg5XNk"/>
      <point x="204" y="1471" type="line"/>
    </contour>
    <component base="period" xOffset="79"/>
  </outline>
</glyph>
<glyph name="comma" format="2">
  <advance width="1686"/>
  <unicode hex="002C"/>
  <outline>
    <contour>
      <point x="1158" y="-358" type="line"/>
      <point x="1527" y="1" type="line"/>
      <point x="1527" y="459" type="line"/>
      <point x="868" y="459" type="line"/>
      <point x="746" y="309" type="line"/>
      <point x="746" y="0" type="line"/>
      <point x="1095" y="0" type="line"/>
      <point x="1095" y="-358" type="line"/>
    </contour>
  </outline>
</glyph>
<glyph name="period" format="2">
  <advance width="1194"/>
  <unicode hex="002E"/>
  <outline>
    <contour>
      <point x="931" y="0" type="line" identifier="1m237t4hyw"/>
      <point x="1033" y="98" type="line" identifier="v7N4yg5XNk"/>
      <point x="1033" y="463" type="line"/>
      <point x="307" y="463" type="line" identifier="zfocDyDTCM"/>
      <point x="206" y="364" type="line"/>
      <point x="206" y="0" type="line" identifier="S4rO5KuHiL"/>
    </contour>
  </outline>
</glyph>
<glyph name="three" format="2">
  <advance width="4887"/>
  <unicode hex="0033"/>
  <outline>
    <contour>
      <point x="183" y="0" type="line" identifier="O9abUc1nmN"/>
      <point x="4598" y="0" type="line" identifier="kMJYMTfXCq"/>
      <point x="4598" y="999" type="line" identifier="su2XmdS8e8"/>
      <point x="4210" y="999" type="line" identifier="JQaOzDQqlF"/>
      <point x="4210" y="1600" type="line" identifier="xg8x2Ki40p"/>
      <point x="244" y="1600" type="line" identifier="pE1XSRiy68"/>
      <point x="244" y="1170" type="line" identifier="7ogBYufWpl"/>
      <point x="3428" y="1170" type="line" identifier="RHLvSX2Jv6"/>
      <point x="3428" y="1002" type="line" identifier="iic1IBkDqp"/>
      <point x="596" y="1002" type="line" identifier="lRLJEhXMlO"/>
      <point x="596" y="594" type="line" identifier="8aKgEELrVU"/>
      <point x="3817" y="594" type="line" identifier="Dm8zjmbhNr"/>
      <point x="3817" y="430" type="line" identifier="xv9CFHiFgB"/>
      <point x="183" y="430" type="line" identifier="YajKQV3MHP"/>
    </contour>
  </outline>
</glyph>
<glyph name="four" format="2">
  <advance width="4713"/>
  <unicode hex="0034"/>
  <outline>
    <contour>
      <point x="3388" y="0" type="line"/>
      <point x="4168" y="0" type="line"/>
      <point x="4168" y="528" type="line"/>
      <point x="4533" y="528" type="line"/>
      <point x="4533" y="982" type="line"/>
      <point x="4168" y="982" type="line"/>
      <point x="4168" y="1600" type="line"/>
      <point x="3388" y="1600" type="line"/>
      <point x="3388" y="982" type="line"/>
      <point x="959" y="982" type="line"/>
      <point x="959" y="1068" type="line"/>
      <point x="960" y="1553" type="line"/>
      <point x="180" y="1553" type="line"/>
      <point x="180" y="1068" type="line"/>
      <point x="180" y="528" type="line"/>
      <point x="3388" y="528" type="line"/>
    </contour>
  </outline>
</glyph>
<glyph name="six" format="2">
  <advance width="4512"/>
  <unicode hex="0036"/>
  <outline>
    <contour>
      <point x="265" y="0" type="line" identifier="uiw6aBUf4P"/>
      <point x="4604" y="0" type="line" identifier="jtYkxiUX6G"/>
      <point x="4604" y="996" type="line" identifier="2G5L37c87I"/>
      <point x="1046" y="996" type="line"/>
      <point x="1046" y="1111" type="line"/>
      <point x="1252" y="1170" type="line"/>
      <point x="4603" y="1170" type="line"/>
      <point x="4603" y="1600" type="line" identifier="oGvEEuxnYv"/>
      <point x="708" y="1600" type="line" identifier="xR3pEHbMJx"/>
      <point x="265" y="1290" type="line" identifier="KnMArb0tv8"/>
    </contour>
    <contour>
      <point x="3823" y="595" type="line"/>
      <point x="3823" y="430" type="line"/>
      <point x="1046" y="430" type="line"/>
      <point x="1046" y="595" type="line"/>
    </contour>
  </outline>
</glyph>
<glyph name="seven" format="2">
  <advance width="4628"/>
  <unicode hex="0037"/>
  <outline>
    <contour>
      <point x="1691" y="0" type="line"/>
      <point x="2544" y="0" type="line" identifier="PiPrv7Kcoy"/>
      <point x="4456" y="1043" type="line" identifier="PkvwNC9Tx1"/>
      <point x="4456" y="1600" type="line" identifier="tgqM27bPOm"/>
      <point x="172" y="1600" type="line" identifier="36ml4xRICt"/>
      <point x="172" y="778" type="line" identifier="aaDZsh5Mah"/>
      <point x="953" y="778" type="line"/>
      <point x="953" y="1145" type="line"/>
      <point x="3462" y="1145" type="line"/>
      <point x="3462" y="1050" type="line"/>
    </contour>
  </outline>
</glyph>
<glyph name="eight" format="2">
  <advance width="4856"/>
  <unicode hex="0038"/>
  <outline>
    <contour>
      <point x="3559" y="589" type="line"/>
      <point x="3896" y="421" type="line"/>
      <point x="3896" y="423" type="line"/>
      <point x="960" y="423" type="line"/>
      <point x="960" y="407" type="line"/>
      <point x="1298" y="589" type="line"/>
    </contour>
    <contour>
      <point x="4333" y="799" type="line"/>
      <point x="4333" y="801" type="line"/>
      <point x="4672" y="1002" type="line"/>
      <point x="4672" y="1600" type="line"/>
      <point x="184" y="1600" type="line"/>
      <point x="184" y="1002" type="line"/>
      <point x="523" y="801" type="line"/>
      <point x="523" y="799" type="line"/>
      <point x="181" y="596" type="line"/>
      <point x="181" y="0" type="line"/>
      <point x="4675" y="0" type="line"/>
      <point x="4675" y="596" type="line"/>
    </contour>
    <contour>
      <point x="1298" y="1011" type="line"/>
      <point x="964" y="1185" type="line"/>
      <point x="963" y="1177" type="line"/>
      <point x="3893" y="1177" type="line"/>
      <point x="3892" y="1185" type="line"/>
      <point x="3559" y="1011" type="line"/>
    </contour>
  </outline>
</glyph>
<glyph name="nine" format="2">
  <advance width="4501"/>
  <unicode hex="0039"/>
  <outline>
    <contour>
      <point x="307" y="0" type="line" identifier="oGvEEuxnYv"/>
      <point x="4638" y="0" type="line" identifier="xR3pEHbMJx"/>
      <point x="4638" y="1600" type="line" identifier="uiw6aBUf4P"/>
      <point x="306" y="1600" type="line" identifier="jtYkxiUX6G"/>
      <point x="306" y="596" type="line" identifier="2G5L37c87I"/>
      <point x="3858" y="596" type="line"/>
      <point x="3858" y="430" type="line"/>
      <point x="307" y="430" type="line"/>
    </contour>
    <contour>
      <point x="1088" y="1004" type="line"/>
      <point x="1088" y="1170" type="line"/>
      <point x="3858" y="1170" type="line"/>
      <point x="3858" y="1004" type="line"/>
    </contour>
  </outline>
</glyph>
<glyph name="A" format="2">
  <advance width="4726"/>
  <unicode hex="0041"/>
  <outline>
    <contour>
      <point x="178" y="0" type="line" smooth="yes" identifier="jFq8ta4UUc"/>
      <point x="958" y="0" type="line" smooth="yes" identifier="dQz4RxYhG4"/>
      <point x="958" y="354" type="line" smooth="yes" identifier="viYRWe5UN7"/>
      <point x="3657" y="354" type="line" smooth="yes" identifier="QVexAlbAcl"/>
      <point x="3657" y="0" type="line" smooth="yes" identifier="ZgsCdxNJRW"/>
      <point x="4438" y="0" type="line" smooth="yes" identifier="kpn4Kw9J0C"/>
      <point x="4438" y="1600" type="line" smooth="yes" identifier="OBZ5Ayed7M"/>
      <point x="640" y="1600" type="line" smooth="yes" identifier="iDT0uyhKrn"/>
      <point x="178" y="1107" type="line" smooth="yes" identifier="dqVr87m3uJ"/>
    </contour>
    <contour>
      <point x="958" y="810" type="line" smooth="yes" identifier="IIRC9Wy7kQ"/>
      <point x="958" y="972" type="line" smooth="yes" identifier="VufvPdJ075"/>
      <point x="1127" y="1145" type="line" smooth="yes" identifier="FsYtJ2vFnp"/>
      <point x="3657" y="1145" type="line" smooth="yes" identifier="tUsW8L7b0y"/>
      <point x="3657" y="810" type="line" smooth="yes" identifier="eTe9B4y76W"/>
    </contour>
  </outline>
</glyph>
<glyph name="B" format="2">
  <advance width="5009"/>
  <unicode hex="0042"/>
  <outline>
    <contour>
      <point x="360" y="0" type="line" identifier="hvY9r8RmLr"/>
      <point x="4313" y="0" type="line" identifier="9QFpw7nfq7"/>
      <point x="4758" y="511" type="line"/>
      <point x="4758" y="1010" type="line" identifier="543PerILpr"/>
      <point x="4359" y="1010" type="line" identifier="zhomauHW30"/>
      <point x="4359" y="1600" type="line" identifier="FaP204GrdB"/>
      <point x="360" y="1600" type="line" identifier="JEev70GAj6"/>
    </contour>
    <contour>
      <point x="1142" y="430" type="line" identifier="jaMSiLrCua"/>
      <point x="1142" y="596" type="line" identifier="XSrxNd2axx"/>
      <point x="3976" y="596" type="line" identifier="lsRGatjQja"/>
      <point x="3976" y="664" type="line"/>
      <point x="3753" y="430" type="line" identifier="xhlDJ3CjD5"/>
    </contour>
    <contour>
      <point x="1142" y="1004" type="line" identifier="By7dfMihfe"/>
      <point x="1142" y="1170" type="line" identifier="1p5hKrurVy"/>
      <point x="3583" y="1170" type="line" identifier="Qby8aMtF2X"/>
      <point x="3583" y="1004" type="line" identifier="xpxyvIzPoc"/>
    </contour>
  </outline>
</glyph>
<glyph name="D" format="2">
  <advance width="4890"/>
  <unicode hex="0044"/>
  <outline>
    <contour>
      <point x="287" y="0" type="line" identifier="IF8msvcgce"/>
      <point x="4254" y="0" type="line" identifier="ydeACnPZN4"/>
      <point x="4712" y="475" type="line" identifier="wIy2omw5Da"/>
      <point x="4712" y="1600" type="line" identifier="gh4oopoKIn"/>
      <point x="287" y="1600" type="line" identifier="hTYdJwlqIh"/>
    </contour>
    <contour>
      <point x="1069" y="455" type="line" identifier="YShvMHvurg"/>
      <point x="1069" y="1145" type="line" identifier="OGdfzPVlic"/>
      <point x="3931" y="1145" type="line" identifier="4w8cXO1HlF"/>
      <point x="3931" y="657" type="line" identifier="5OFemp6E2Y"/>
      <point x="3676" y="455" type="line" identifier="DiLdvAK6bW"/>
    </contour>
  </outline>
</glyph>
<glyph name="E" format="2">
  <advance width="4340"/>
  <unicode hex="0045"/>
  <outline>
    <contour>
      <point x="355" y="0" type="line" identifier="fZynkQ4XHB"/>
      <point x="3985" y="0" type="line" identifier="FAQNpgUPxV"/>
      <point x="3985" y="428" type="line" identifier="5cgTYOhATF"/>
      <point x="1135" y="428" type="line" identifier="bWs42DaCgU"/>
      <point x="1135" y="598" type="line" identifier="VtD2aADJmn"/>
      <point x="3558" y="598" type="line" identifier="PpbsFdHAnS"/>
      <point x="3558" y="1002" type="line" identifier="8WuC5p8Ax5"/>
      <point x="1135" y="1002" type="line" identifier="m39IWn9ntA"/>
      <point x="1135" y="1172" type="line" identifier="gQ21I4SHQg"/>
      <point x="3968" y="1172" type="line" identifier="eqNb2VTwYs"/>
      <point x="3968" y="1600" type="line" identifier="qYRmo14Il5"/>
      <point x="355" y="1600" type="line" identifier="HmJIcnLWfC"/>
    </contour>
  </outline>
</glyph>
<glyph name="G" format="2">
  <advance width="4547"/>
  <unicode hex="0047"/>
  <outline>
    <contour>
      <point x="153" y="0" type="line" identifier="7lPhzTnk2Z"/>
      <point x="4389" y="0" type="line" identifier="qJVLZGnkwh"/>
      <point x="4389" y="994" type="line" identifier="uek1NNj7De"/>
      <point x="2692" y="994" type="line" identifier="qcvimxjndX"/>
      <point x="2692" y="593" type="line" identifier="EARaY3Su65"/>
      <point x="3608" y="593" type="line" identifier="4m6dHLVhZq"/>
      <point x="3608" y="430" type="line" identifier="Y750RHTvDj"/>
      <point x="934" y="430" type="line" identifier="L2LsGnXiZ2"/>
      <point x="934" y="922" type="line" identifier="sUWsr03vF4"/>
      <point x="1124" y="1170" type="line" identifier="dbOUe6OhxL"/>
      <point x="4378" y="1170" type="line" identifier="5BjRbcud80"/>
      <point x="4378" y="1600" type="line" identifier="9eJelv8BOw"/>
      <point x="596" y="1600" type="line" identifier="lfZev3ICaC"/>
      <point x="153" y="1079" type="line" identifier="V1EWIdPahq"/>
    </contour>
  </outline>
</glyph>
<glyph name="J" format="2">
  <advance width="4443"/>
  <unicode hex="004A"/>
  <outline>
    <contour>
      <point x="251" y="0" type="line" identifier="jiO9eX9U07"/>
      <point x="4082" y="0" type="line" identifier="wgpFs1yguc"/>
      <point x="4082" y="1600" type="line" identifier="d5Di3vNzni"/>
      <point x="3301" y="1600" type="line" identifier="46RrD1WET2"/>
      <point x="3301" y="455" type="line" identifier="zFXsE8BUYG"/>
      <point x="975" y="455" type="line" identifier="NQmE31PUns"/>
      <point x="975" y="997" type="line" identifier="qiXxY6YhCq"/>
      <point x="250" y="997" type="line" identifier="7exNZv1XSc"/>
    </contour>
  </outline>
</glyph>
<glyph name="O" format="2">
  <advance width="4928"/>
  <unicode hex="004F"/>
  <outline>
    <contour>
      <point x="4677" y="510" type="line" identifier="ob8US3C311"/>
      <point x="4677" y="1600" type="line" identifier="c9brEFyXXA"/>
      <point x="696" y="1600" type="line" identifier="a4Ql951bxG"/>
      <point x="251" y="1091" type="line" identifier="kbL68Qh2zr"/>
      <point x="251" y="0" type="line" identifier="U6WibAQAUl"/>
      <point x="4232" y="0" type="line" identifier="dfgNHTgBfR"/>
    </contour>
    <contour>
      <point x="3896" y="664" type="line" identifier="SnrsQD5TLy"/>
      <point x="3701" y="455" type="line" identifier="jjd5iRDXWT"/>
      <point x="1032" y="455" type="line" identifier="YbQKHpAtYn"/>
      <point x="1032" y="934" type="line" identifier="vdfGLkskOQ"/>
      <point x="1221" y="1145" type="line" identifier="qXlVxK5ShE"/>
      <point x="3896" y="1145" type="line" identifier="g70r2r6DwY"/>
    </contour>
  </outline>
</glyph>
<glyph name="Q" format="2">
  <advance width="4886"/>
  <unicode hex="0051"/>
  <outline>
    <contour>
      <point x="4599" y="1600" type="line" identifier="c9brEFyXXA"/>
      <point x="622" y="1600" type="line" identifier="a4Ql951bxG"/>
      <point x="178" y="1091" type="line" identifier="kbL68Qh2zr"/>
      <point x="178" y="2" type="line" identifier="U6WibAQAUl"/>
      <point x="4599" y="2" type="line" identifier="dfgNHTgBfR"/>
    </contour>
    <contour>
      <point x="3818" y="457" type="line" identifier="jjd5iRDXWT"/>
      <point x="959" y="457" type="line" identifier="YbQKHpAtYn"/>
      <point x="959" y="933" type="line" identifier="vdfGLkskOQ"/>
      <point x="1146" y="1145" type="line" identifier="qXlVxK5ShE"/>
      <point x="3818" y="1145" type="line" identifier="g70r2r6DwY"/>
    </contour>
    <contour>
      <point x="2103" y="-180" type="line"/>
      <point x="2797" y="-180" type="line"/>
      <point x="2797" y="3" type="line"/>
      <point x="2103" y="3" type="line"/>
    </contour>
  </outline>
</glyph>
<glyph name="S" format="2">
  <advance width="4691"/>
  <unicode hex="0053"/>
  <outline>
    <contour>
      <point x="252" y="0" type="line" identifier="09VlJ0BjUX"/>
      <point x="3995" y="0" type="line" identifier="EagWihqFM8"/>
      <point x="4439" y="508" type="line"/>
      <point x="4439" y="1019" type="line" identifier="KfNuQA7eZe"/>
      <point x="1035" y="1019" type="line" identifier="At364YZFEy"/>
      <point x="1035" y="930" type="line"/>
      <point x="1250" y="1172" type="line"/>
      <point x="4448" y="1172" type="line" identifier="3ZUkG35meB"/>
      <point x="4447" y="1600" type="line" identifier="SaF9ojRFrW"/>
      <point x="697" y="1600" type="line"/>
      <point x="255" y="1088" type="line"/>
      <point x="255" y="609" type="line" identifier="3sQ8t8BZ6b"/>
      <point x="3658" y="609" type="line" identifier="yiV6OCBLHg"/>
      <point x="3658" y="663" type="line"/>
      <point x="3432" y="429" type="line" identifier="9kdl9SYsn8"/>
      <point x="252" y="429" type="line" identifier="yZDWuX8LLe"/>
    </contour>
  </outline>
</glyph>
<glyph name="U" format="2">
  <advance width="4478"/>
  <unicode hex="0055"/>
  <outline>
    <contour>
      <point x="176" y="0" type="line" smooth="yes"/>
      <point x="4193" y="0" type="line" smooth="yes"/>
      <point x="4193" y="1600" type="line" smooth="yes"/>
      <point x="3411" y="1600" type="line" smooth="yes"/>
      <point x="3411" y="455" type="line"/>
      <point x="957" y="455" type="line" smooth="yes"/>
      <point x="957" y="1600" type="line"/>
      <point x="176" y="1600" type="line" smooth="yes"/>
    </contour>
  </outline>
</glyph>
<glyph name="X" format="2">
  <advance width="4640"/>
  <unicode hex="0058"/>
  <outline>
    <contour>
      <point x="3383" y="555" type="line"/>
      <point x="3707" y="337" type="line"/>
      <point x="3706" y="0" type="line"/>
      <point x="4487" y="0" type="line"/>
      <point x="4487" y="547" type="line"/>
      <point x="4121" y="777" type="line"/>
      <point x="4121" y="780" type="line"/>
      <point x="4484" y="780" type="line"/>
      <point x="4484" y="1600" type="line"/>
      <point x="3703" y="1600" type="line"/>
      <point x="3703" y="1011" type="line"/>
      <point x="3456" y="1011" type="line"/>
      <point x="1181" y="1011" type="line"/>
      <point x="936" y="1157" type="line"/>
      <point x="936" y="1600" type="line"/>
      <point x="156" y="1600" type="line"/>
      <point x="156" y="978" type="line"/>
      <point x="520" y="779" type="line"/>
      <point x="520" y="776" type="line"/>
      <point x="152" y="775" type="line"/>
      <point x="152" y="0" type="line"/>
      <point x="933" y="0" type="line"/>
      <point x="933" y="555" type="line"/>
      <point x="1255" y="555" type="line"/>
    </contour>
  </outline>
</glyph>
<glyph name="C.wide" format="2">
  <advance width="4536"/>
  <outline>
    <contour>
      <point x="180" y="0" type="line" identifier="7lPhzTnk2Z"/>
      <point x="4355" y="0" type="line" identifier="qJVLZGnkwh"/>
      <point x="4355" y="686" type="line" identifier="nDnDHzAMXL"/>
      <point x="3574" y="686" type="line" identifier="QX1V08aTu0"/>
      <point x="3574" y="455" type="line" identifier="Y750RHTvDj"/>
      <point x="960" y="455" type="line" identifier="L2LsGnXiZ2"/>
      <point x="960" y="925" type="line" identifier="sUWsr03vF4"/>
      <point x="1149" y="1145" type="line" identifier="dbOUe6OhxL"/>
      <point x="3576" y="1145" type="line" identifier="5BjRbcud80"/>
      <point x="3576" y="933" type="line" identifier="fNVDqwQo2o"/>
      <point x="4357" y="933" type="line" identifier="wLqQQx7QVN"/>
      <point x="4357" y="1600" type="line" identifier="9eJelv8BOw"/>
      <point x="624" y="1600" type="line" identifier="lfZev3ICaC"/>
      <point x="180" y="1090" type="line" identifier="V1EWIdPahq"/>
    </contour>
  </outline>
</glyph>
<glyph name="E.wide" format="2">
  <advance width="4385"/>
  <outline>
    <contour>
      <point x="288" y="0" type="line" identifier="fZynkQ4XHB"/>
      <point x="4097" y="0" type="line" identifier="FAQNpgUPxV"/>
      <point x="4097" y="650" type="line" identifier="gHI0YjrPxR"/>
      <point x="3323" y="650" type="line" identifier="gxCIuXb4el"/>
      <point x="3323" y="423" type="line" identifier="5cgTYOhATF"/>
      <point x="1068" y="423" type="line" identifier="bWs42DaCgU"/>
      <point x="1068" y="588" type="line" identifier="VtD2aADJmn"/>
      <point x="3002" y="588" type="line" identifier="PpbsFdHAnS"/>
      <point x="3002" y="1011" type="line" identifier="8WuC5p8Ax5"/>
      <point x="1068" y="1011" type="line" identifier="m39IWn9ntA"/>
      <point x="1068" y="1177" type="line" identifier="gQ21I4SHQg"/>
      <point x="3322" y="1177" type="line" identifier="eqNb2VTwYs"/>
      <point x="3322" y="929" type="line" identifier="mLmcFoJA4m"/>
      <point x="4096" y="929" type="line" identifier="e79n7CoPy1"/>
      <point x="4096" y="1600" type="line" identifier="qYRmo14Il5"/>
      <point x="288" y="1600" type="line" identifier="HmJIcnLWfC"/>
    </contour>
  </outline>
</glyph>
<glyph name="F.wide" format="2">
  <advance width="4544"/>
  <outline>
    <contour>
      <point x="291" y="0" type="line" identifier="oAgH2tA6DJ"/>
      <point x="1072" y="0" type="line" identifier="zCZyMcW5ho"/>
      <point x="1072" y="463" type="line" identifier="yHYqkMd7LI"/>
      <point x="2962" y="463" type="line" identifier="NmB7yyQuio"/>
      <point x="2962" y="918" type="line" identifier="wQk2C8zPHh"/>
      <point x="1072" y="918" type="line" identifier="4cFHKQfHDt"/>
      <point x="1072" y="1145" type="line" identifier="ZvzwyrcwpS"/>
      <point x="3593" y="1145" type="line" identifier="4E754ovOIe"/>
      <point x="3593" y="851" type="line" identifier="vZkeT9KrKR"/>
      <point x="4373" y="851" type="line" identifier="0tk7G4orz6"/>
      <point x="4373" y="1600" type="line" identifier="NUrIjqOB7J"/>
      <point x="291" y="1600" type="line" identifier="TBAYuCfUFX"/>
    </contour>
  </outline>
</glyph>
<glyph name="G.wide" format="2">
  <advance width="4652"/>
  <outline>
    <contour>
      <point x="179" y="0" type="line" identifier="7lPhzTnk2Z"/>
      <point x="4471" y="0" type="line" identifier="qJVLZGnkwh"/>
      <point x="4471" y="1007" type="line" identifier="uek1NNj7De"/>
      <point x="2789" y="1007" type="line" identifier="qcvimxjndX"/>
      <point x="2789" y="584" type="line" identifier="EARaY3Su65"/>
      <point x="3690" y="584" type="line" identifier="4m6dHLVhZq"/>
      <point x="3690" y="423" type="line" identifier="Y750RHTvDj"/>
      <point x="959" y="423" type="line" identifier="L2LsGnXiZ2"/>
      <point x="959" y="957" type="line" identifier="sUWsr03vF4"/>
      <point x="1174" y="1177" type="line" identifier="dbOUe6OhxL"/>
      <point x="3692" y="1177" type="line" identifier="5BjRbcud80"/>
      <point x="3692" y="1080" type="line" identifier="fNVDqwQo2o"/>
      <point x="4473" y="1080" type="line" identifier="wLqQQx7QVN"/>
      <point x="4473" y="1600" type="line" identifier="9eJelv8BOw"/>
      <point x="632" y="1600" type="line" identifier="lfZev3ICaC"/>
      <point x="179" y="1120" type="line" identifier="V1EWIdPahq"/>
    </contour>
  </outline>
</glyph>
<glyph name="M.narrow" format="2">
  <advance width="6398"/>
  <outline>
    <contour>
      <point x="5252" y="0" type="line" smooth="yes" identifier="12Pyby1xY2"/>
      <point x="6034" y="0" type="line" smooth="yes" identifier="5LJg4ajoG6"/>
      <point x="6034" y="1599" type="line" smooth="yes" identifier="ZqTZqAY3uY"/>
      <point x="707" y="1599" type="line" smooth="yes" identifier="R4lklfJsHA"/>
      <point x="255" y="1117" type="line" smooth="yes" identifier="7g7f8Wu7K4"/>
      <point x="255" y="0" type="line" smooth="yes" identifier="RTOJW56qXy"/>
      <point x="1036" y="0" type="line" identifier="JfSFAkWGZC"/>
      <point x="1036" y="875" type="line" smooth="yes" identifier="WWvGwSpq0g"/>
      <point x="1304" y="1144" type="line" smooth="yes" identifier="oee4nqI8Wl"/>
      <point x="2752" y="1144" type="line" identifier="Ljn2lpvpG8"/>
      <point x="2752" y="74" type="line" smooth="yes"/>
      <point x="3534" y="74" type="line"/>
      <point x="3534" y="1144" type="line" identifier="GlWB6PG54Z"/>
      <point x="5252" y="1144" type="line" identifier="iqeTRv7HXg"/>
    </contour>
  </outline>
</glyph>
<glyph name="P.wide" format="2">
  <advance width="4626"/>
  <outline>
    <contour>
      <point x="248" y="0" type="line" identifier="EG08jqU5fb"/>
      <point x="1029" y="0" type="line" identifier="osRzIFK2Cu"/>
      <point x="1029" y="427" type="line" identifier="hIFVovVRwe"/>
      <point x="4338" y="427" type="line" identifier="Tt6D8zYZmU"/>
      <point x="4338" y="1600" type="line" identifier="6xW04auDFu"/>
      <point x="248" y="1600" type="line" identifier="eETO5GBD5v"/>
    </contour>
    <contour>
      <point x="1029" y="889" type="line" identifier="PIBVN1PGv1"/>
      <point x="1029" y="1145" type="line" identifier="IZIZQr2gYJ"/>
      <point x="3558" y="1145" type="line" identifier="2c4LCF1E1R"/>
      <point x="3558" y="889" type="line" identifier="1WCnzth1GX"/>
    </contour>
  </outline>
</glyph>
<glyph name="R.wide" format="2">
  <advance width="4482"/>
  <outline>
    <contour>
      <point x="3456" y="0" type="line"/>
      <point x="4236" y="0" type="line"/>
      <point x="4236" y="428" type="line"/>
      <point x="3845" y="500" type="line"/>
      <point x="3026" y="471" type="line"/>
      <point x="3456" y="347" type="line"/>
    </contour>
    <contour>
      <point x="288" y="-2" type="line" identifier="EG08jqU5fb"/>
      <point x="1069" y="-2" type="line" identifier="osRzIFK2Cu"/>
      <point x="1069" y="461" type="line" identifier="hIFVovVRwe"/>
      <point x="4303" y="461" type="line" identifier="Tt6D8zYZmU"/>
      <point x="4303" y="1598" type="line" identifier="6xW04auDFu"/>
      <point x="288" y="1598" type="line" identifier="eETO5GBD5v"/>
    </contour>
    <contour>
      <point x="1069" y="916" type="line" identifier="PIBVN1PGv1"/>
      <point x="1069" y="1143" type="line" identifier="IZIZQr2gYJ"/>
      <point x="3522" y="1143" type="line" identifier="2c4LCF1E1R"/>
      <point x="3522" y="916" type="line" identifier="1WCnzth1GX"/>
    </contour>
  </outline>
</glyph>
<glyph name="S.wide" format="2">
  <advance width="4437"/>
  <outline>
    <contour>
      <point x="172" y="0" type="line" identifier="09VlJ0BjUX"/>
      <point x="3818" y="0" type="line" identifier="EagWihqFM8"/>
      <point x="4264" y="504" type="line"/>
      <point x="4265" y="1011" type="line" identifier="KfNuQA7eZe"/>
      <point x="954" y="1011" type="line" identifier="At364YZFEy"/>
      <point x="954" y="930" type="line"/>
      <point x="1169" y="1172" type="line"/>
      <point x="3490" y="1172" type="line" identifier="3ZUkG35meB"/>
      <point x="3490" y="1071" type="line" identifier="DTOJhFIl15"/>
      <point x="4271" y="1071" type="line" identifier="9KDcrfQ5Ui"/>
      <point x="4271" y="1600" type="line" identifier="SaF9ojRFrW"/>
      <point x="616" y="1600" type="line"/>
      <point x="174" y="1089" type="line"/>
      <point x="174" y="601" type="line" identifier="3sQ8t8BZ6b"/>
      <point x="3483" y="601" type="line" identifier="yiV6OCBLHg"/>
      <point x="3483" y="663" type="line"/>
      <point x="3257" y="429" type="line" identifier="9kdl9SYsn8"/>
      <point x="953" y="429" type="line" identifier="yZDWuX8LLe"/>
      <point x="953" y="510" type="line" identifier="jYb9001DTm"/>
      <point x="172" y="510" type="line" identifier="ho4DrS0rdW"/>
    </contour>
  </outline>
</glyph>
<glyph name="U.alt" format="2">
  <advance width="4529"/>
  <outline>
    <contour>
      <point x="3525" y="1600" type="line" smooth="yes"/>
      <point x="3525" y="455" type="line"/>
      <point x="1000" y="455" type="line" smooth="yes"/>
      <point x="1000" y="1600" type="line"/>
      <point x="219" y="1600" type="line" smooth="yes"/>
      <point x="219" y="0" type="line" smooth="yes"/>
      <point x="4306" y="0" type="line" smooth="yes"/>
      <point x="4306" y="1600" type="line" smooth="yes"/>
    </contour>
  </outline>
</glyph>
<glyph name="Y.wide" format="2">
  <advance width="4814"/>
  <outline>
    <contour>
      <point x="291" y="0" type="line"/>
      <point x="4524" y="0" type="line" identifier="oOtn61SmRY"/>
      <point x="4524" y="1600" type="line" identifier="8OglXgblhr"/>
      <point x="3744" y="1600" type="line" identifier="db0bPhBdaU"/>
      <point x="3744" y="1090" type="line" identifier="MTAeavIVWY"/>
      <point x="1070" y="1090" type="line" identifier="lggLiivmLt"/>
      <point x="1070" y="1600" type="line" identifier="UPaHY3UudR"/>
      <point x="290" y="1600" type="line" identifier="ZnCDQVdtyD"/>
      <point x="290" y="667" type="line" identifier="uqAJBjDIOT"/>
      <point x="3744" y="667" type="line" identifier="7JgTtdb0jg"/>
      <point x="3744" y="423" type="line"/>
      <point x="1072" y="423" type="line"/>
      <point x="1071" y="528" type="line"/>
      <point x="291" y="528" type="line"/>
    </contour>
  </outline>
</glyph>
<glyph name="Z.wide" format="2">
  <advance width="4530"/>
  <outline>
    <contour>
      <point x="170" y="0" type="line"/>
      <point x="4348" y="0" type="line" identifier="pzdvPTirLJ"/>
      <point x="4348" y="422" type="line"/>
      <point x="1037" y="422" type="line"/>
      <point x="1037" y="449" type="line"/>
      <point x="4352" y="851" type="line" identifier="yyb1NCCI5w"/>
      <point x="4352" y="1600" type="line" identifier="5FogYRSgkk"/>
      <point x="200" y="1600" type="line" identifier="svlFvrau4c"/>
      <point x="200" y="1177" type="line"/>
      <point x="3393" y="1177" type="line"/>
      <point x="3393" y="1198" type="line"/>
      <point x="170" y="806" type="line" identifier="teVKnpBcVb"/>
    </contour>
  </outline>
</glyph>
<glyph name="five.wide" format="2">
  <advance width="4822"/>
  <outline>
    <contour>
      <point x="254" y="0" type="line" identifier="09VlJ0BjUX"/>
      <point x="4571" y="0" type="line" identifier="EagWihqFM8"/>
      <point x="4571" y="1004" type="line" identifier="KfNuQA7eZe"/>
      <point x="1032" y="1004" type="line" identifier="At364YZFEy"/>
      <point x="1032" y="1170" type="line" identifier="BcuLfvaQKC"/>
      <point x="4571" y="1170" type="line" identifier="3ZUkG35meB"/>
      <point x="4571" y="1600" type="line" identifier="SaF9ojRFrW"/>
      <point x="252" y="1600" type="line" identifier="F4sQEYelA8"/>
      <point x="252" y="596" type="line" identifier="3sQ8t8BZ6b"/>
      <point x="3790" y="596" type="line" identifier="yiV6OCBLHg"/>
      <point x="3790" y="430" type="line" identifier="9kdl9SYsn8"/>
      <point x="254" y="430" type="line" identifier="yZDWuX8LLe"/>
    </contour>
  </outline>
</glyph>
<glyph name="nine.wide" format="2">
  <advance width="4844"/>
  <outline>
    <contour>
      <point x="4593" y="1602" type="line" identifier="uiw6aBUf4P"/>
      <point x="252" y="1602" type="line" identifier="jtYkxiUX6G"/>
      <point x="252" y="600" type="line" identifier="2G5L37c87I"/>
      <point x="3813" y="600" type="line"/>
      <point x="3813" y="432" type="line"/>
      <point x="1034" y="432" type="line"/>
      <point x="1034" y="524" type="line"/>
      <point x="253" y="524" type="line" identifier="Wuidbv6mUe"/>
      <point x="253" y="2" type="line" identifier="oGvEEuxnYv"/>
      <point x="4593" y="2" type="line" identifier="xR3pEHbMJx"/>
    </contour>
    <contour>
      <point x="1033" y="1008" type="line"/>
      <point x="1033" y="1172" type="line"/>
      <point x="3813" y="1172" type="line"/>
      <point x="3813" y="1008" type="line"/>
    </contour>
  </outline>
</glyph>
<glyph name="one.narrow" format="2">
  <advance width="3073"/>
  <outline>
    <contour>
      <point x="2711" y="0" type="line" identifier="5nmxQXofSG"/>
      <point x="2711" y="1600" type="line" identifier="4rjIeWbSbx"/>
      <point x="253" y="1600" type="line"/>
      <point x="253" y="1145" type="line"/>
      <point x="1930" y="1145" type="line"/>
      <point x="1930" y="0" type="line"/>
    </contour>
  </outline>
</glyph>
<glyph name="seven.alt" format="2">
  <advance width="4141"/>
  <outline>
    <contour>
      <point x="236" y="1600" type="line" identifier="jiO9eX9U07"/>
      <point x="4028" y="1600" type="line" identifier="wgpFs1yguc"/>
      <point x="4028" y="0" type="line" identifier="d5Di3vNzni"/>
      <point x="3246" y="0" type="line" identifier="46RrD1WET2"/>
      <point x="3246" y="1145" type="line" identifier="zFXsE8BUYG"/>
      <point x="960" y="1145" type="line" identifier="NQmE31PUns"/>
      <point x="961" y="702" type="line" identifier="qiXxY6YhCq"/>
      <point x="236" y="702" type="line" identifier="7exNZv1XSc"/>
    </contour>
  </outline>
</glyph>
<glyph name="six.wide" format="2">
  <advance width="4693"/>
  <outline>
    <contour>
      <point x="179" y="0" type="line" identifier="uiw6aBUf4P"/>
      <point x="4514" y="0" type="line" identifier="jtYkxiUX6G"/>
      <point x="4514" y="1007" type="line" identifier="2G5L37c87I"/>
      <point x="959" y="1007" type="line"/>
      <point x="959" y="1027" type="line"/>
      <point x="1164" y="1177" type="line"/>
      <point x="3732" y="1177" type="line"/>
      <point x="3732" y="1054" type="line"/>
      <point x="4513" y="1054" type="line" identifier="Wuidbv6mUe"/>
      <point x="4513" y="1600" type="line" identifier="oGvEEuxnYv"/>
      <point x="626" y="1600" type="line" identifier="xR3pEHbMJx"/>
      <point x="179" y="1208" type="line" identifier="KnMArb0tv8"/>
    </contour>
    <contour>
      <point x="3732" y="585" type="line"/>
      <point x="3732" y="423" type="line"/>
      <point x="959" y="423" type="line"/>
      <point x="959" y="585" type="line"/>
    </contour>
  </outline>
</glyph>
<glyph name="three.wide" format="2">
  <advance width="4772"/>
  <outline>
    <contour>
      <point x="180" y="0" type="line" identifier="O9abUc1nmN"/>
      <point x="4592" y="0" type="line" identifier="kMJYMTfXCq"/>
      <point x="4592" y="986" type="line" identifier="su2XmdS8e8"/>
      <point x="4289" y="986" type="line" identifier="JQaOzDQqlF"/>
      <point x="4289" y="1600" type="line" identifier="xg8x2Ki40p"/>
      <point x="212" y="1600" type="line" identifier="pE1XSRiy68"/>
      <point x="212" y="929" type="line" identifier="5lNstGRcSF"/>
      <point x="994" y="929" type="line" identifier="AcE5xKDZfE"/>
      <point x="994" y="1177" type="line" identifier="7ogBYufWpl"/>
      <point x="3507" y="1177" type="line" identifier="RHLvSX2Jv6"/>
      <point x="3507" y="987" type="line" identifier="iic1IBkDqp"/>
      <point x="1457" y="987" type="line" identifier="lRLJEhXMlO"/>
      <point x="1457" y="608" type="line" identifier="8aKgEELrVU"/>
      <point x="3811" y="608" type="line" identifier="Dm8zjmbhNr"/>
      <point x="3811" y="423" type="line" identifier="xv9CFHiFgB"/>
      <point x="961" y="423" type="line" identifier="YajKQV3MHP"/>
      <point x="961" y="675" type="line" identifier="36SchVkwze"/>
      <point x="180" y="675" type="line" identifier="tVui9PiOjA"/>
    </contour>
  </outline>
</glyph>
<glyph name="two.wide" format="2">
  <advance width="4685"/>
  <outline>
    <contour>
      <point x="251" y="0" type="line"/>
      <point x="4433" y="0" type="line" identifier="pzdvPTirLJ"/>
      <point x="4433" y="549" type="line"/>
      <point x="3652" y="549" type="line"/>
      <point x="3652" y="423" type="line"/>
      <point x="1034" y="423" type="line"/>
      <point x="1034" y="623" type="line"/>
      <point x="4431" y="623" type="line" identifier="yyb1NCCI5w"/>
      <point x="4431" y="1600" type="line" identifier="5FogYRSgkk"/>
      <point x="254" y="1600" type="line" identifier="svlFvrau4c"/>
      <point x="254" y="1020" type="line" identifier="LQ9fBsTy9K"/>
      <point x="1036" y="1020" type="line"/>
      <point x="1036" y="1178" type="line"/>
      <point x="3650" y="1178" type="line"/>
      <point x="3650" y="966" type="line"/>
      <point x="251" y="966" type="line" identifier="teVKnpBcVb"/>
    </contour>
  </outline>
</glyph>
